# xmcd
#
# Track frame offsets:
#	150
#	9463
#	23233
#	38959
#	53439
#	74240
#	88160
#	105668
#	119986
#	134149
#	163317
#
# Disc length: 2388 seconds
#
# Revision: 18
# Processed by: cddbd v1.5.2PL0 Copyright (c) Steve Scherf et al.
# Submitted via: Jack! The Knife 20 Magnifico
#
DISCID=a609520b
DTITLE=Queen - News Of The World
DYEAR=1977
DGENRE=Rock
TTITLE0=We Will Rock You
TTITLE1=We Are The Champions
TTITLE2=Sheer Heart Attack
TTITLE3=All Dead, All Dead
TTITLE4=Spread Your Wings
TTITLE5=Fight From The Inside
TTITLE6=Get Down, Make Love
TTITLE7=Sleeping On The Sidewalk
TTITLE8=Who Needs You
TTITLE9=It's Late
TTITLE10=My Melancholy Blues
EXTD=Queen and Mike Stone
EXTT0=Brian May
EXTT1=Freddie Mercury
EXTT2=Roger Taylor
EXTT3=Brian May
EXTT4=John Deacon
EXTT5=Roger Taylor
EXTT6=Freddie Mercury
EXTT7=Brian May
EXTT8=John Deacon
EXTT9=Brian May
EXTT10=Freddie Mercury
PLAYORDER=
